<mxfile host="app.diagrams.net" modified="2022-04-21T21:13:30.784Z" agent="5.0 (Windows NT 10.0; Win64; x64) AppleWebKit/537.36 (KHTML, like Gecko) Chrome/100.0.4896.127 Safari/537.36" etag="wOYqwbbDbSBEHyk9rvAV" version="17.4.5" type="github" pages="2">
  <diagram id="P3If8hHnJtQW5MDhgNXn" name="Page-1">
    <mxGraphModel dx="2966" dy="1563" grid="1" gridSize="10" guides="1" tooltips="1" connect="1" arrows="1" fold="1" page="1" pageScale="1" pageWidth="2336" pageHeight="1654" math="0" shadow="0">
      <root>
        <mxCell id="0" />
        <mxCell id="1" parent="0" />
        <mxCell id="7JDwlH0h02J3nJGDVh9B-1" value="Internet" style="html=1;outlineConnect=0;fillColor=#CCCCCC;strokeColor=#6881B3;gradientColor=none;gradientDirection=north;strokeWidth=2;shape=mxgraph.networks.cloud;fontColor=#ffffff;" vertex="1" parent="1">
          <mxGeometry x="10" y="21.25" width="90" height="50" as="geometry" />
        </mxCell>
        <mxCell id="7JDwlH0h02J3nJGDVh9B-2" value="Firewall&lt;br&gt;NAT&lt;br&gt;DMZ" style="fontColor=#0066CC;verticalAlign=top;verticalLabelPosition=bottom;labelPosition=center;align=center;html=1;outlineConnect=0;fillColor=#CCCCCC;strokeColor=#6881B3;gradientColor=none;gradientDirection=north;strokeWidth=2;shape=mxgraph.networks.firewall;" vertex="1" parent="1">
          <mxGeometry x="575" y="90" width="70" height="60" as="geometry" />
        </mxCell>
        <mxCell id="ds0_vy_Eozye5HKEika6-3" value="" style="edgeStyle=orthogonalEdgeStyle;rounded=0;orthogonalLoop=1;jettySize=auto;html=1;fontSize=33;endArrow=none;endFill=0;strokeWidth=10;" edge="1" parent="1" source="7JDwlH0h02J3nJGDVh9B-4" target="7JDwlH0h02J3nJGDVh9B-1">
          <mxGeometry relative="1" as="geometry" />
        </mxCell>
        <mxCell id="ds0_vy_Eozye5HKEika6-4" style="edgeStyle=orthogonalEdgeStyle;rounded=0;orthogonalLoop=1;jettySize=auto;html=1;exitX=1;exitY=0.5;exitDx=0;exitDy=0;exitPerimeter=0;fontSize=33;endArrow=none;endFill=0;strokeWidth=10;" edge="1" parent="1" source="7JDwlH0h02J3nJGDVh9B-4" target="7JDwlH0h02J3nJGDVh9B-2">
          <mxGeometry relative="1" as="geometry" />
        </mxCell>
        <mxCell id="7JDwlH0h02J3nJGDVh9B-4" value="Core Router&lt;br&gt;(MPOE)" style="fontColor=#0066CC;verticalAlign=top;verticalLabelPosition=bottom;labelPosition=center;align=center;html=1;outlineConnect=0;fillColor=#CCCCCC;strokeColor=#6881B3;gradientColor=none;gradientDirection=north;strokeWidth=2;shape=mxgraph.networks.router;fontSize=18;" vertex="1" parent="1">
          <mxGeometry x="210" y="16.25" width="190" height="60" as="geometry" />
        </mxCell>
        <mxCell id="7JDwlH0h02J3nJGDVh9B-22" style="edgeStyle=orthogonalEdgeStyle;rounded=0;orthogonalLoop=1;jettySize=auto;html=1;exitX=0.5;exitY=1;exitDx=0;exitDy=0;exitPerimeter=0;strokeWidth=3;" edge="1" parent="1" source="7JDwlH0h02J3nJGDVh9B-10" target="7JDwlH0h02J3nJGDVh9B-21">
          <mxGeometry relative="1" as="geometry" />
        </mxCell>
        <mxCell id="7JDwlH0h02J3nJGDVh9B-27" style="edgeStyle=orthogonalEdgeStyle;rounded=0;orthogonalLoop=1;jettySize=auto;html=1;exitX=0.5;exitY=0;exitDx=0;exitDy=0;exitPerimeter=0;strokeWidth=3;entryX=0;entryY=0.5;entryDx=0;entryDy=0;entryPerimeter=0;" edge="1" parent="1" source="7JDwlH0h02J3nJGDVh9B-10" target="7JDwlH0h02J3nJGDVh9B-19">
          <mxGeometry relative="1" as="geometry">
            <Array as="points">
              <mxPoint x="1270" y="190" />
              <mxPoint x="1270" y="170" />
              <mxPoint x="1600" y="170" />
            </Array>
          </mxGeometry>
        </mxCell>
        <mxCell id="7JDwlH0h02J3nJGDVh9B-28" style="edgeStyle=orthogonalEdgeStyle;rounded=0;orthogonalLoop=1;jettySize=auto;html=1;exitX=0.95;exitY=0.05;exitDx=0;exitDy=0;exitPerimeter=0;entryX=0;entryY=0.5;entryDx=0;entryDy=0;entryPerimeter=0;strokeWidth=3;" edge="1" parent="1" source="7JDwlH0h02J3nJGDVh9B-10" target="7JDwlH0h02J3nJGDVh9B-24">
          <mxGeometry relative="1" as="geometry" />
        </mxCell>
        <mxCell id="7JDwlH0h02J3nJGDVh9B-30" style="edgeStyle=orthogonalEdgeStyle;rounded=0;orthogonalLoop=1;jettySize=auto;html=1;exitX=1;exitY=0.5;exitDx=0;exitDy=0;exitPerimeter=0;strokeWidth=3;" edge="1" parent="1" source="7JDwlH0h02J3nJGDVh9B-10" target="7JDwlH0h02J3nJGDVh9B-39">
          <mxGeometry relative="1" as="geometry">
            <mxPoint x="1600" y="460" as="targetPoint" />
            <Array as="points">
              <mxPoint x="1420" y="215" />
              <mxPoint x="1420" y="380" />
              <mxPoint x="1560" y="380" />
              <mxPoint x="1560" y="465" />
            </Array>
          </mxGeometry>
        </mxCell>
        <mxCell id="7JDwlH0h02J3nJGDVh9B-38" value="Trunk&lt;br&gt;&lt;font style=&quot;font-size: 33px&quot;&gt;Port 5&lt;br style=&quot;font-size: 33px&quot;&gt;&lt;/font&gt;" style="edgeStyle=orthogonalEdgeStyle;rounded=0;orthogonalLoop=1;jettySize=auto;html=1;exitX=0;exitY=0.5;exitDx=0;exitDy=0;exitPerimeter=0;fontSize=33;strokeWidth=3;endArrow=none;endFill=0;" edge="1" parent="1" source="ds0_vy_Eozye5HKEika6-1" target="7JDwlH0h02J3nJGDVh9B-37">
          <mxGeometry relative="1" as="geometry">
            <Array as="points">
              <mxPoint x="856" y="460" />
            </Array>
          </mxGeometry>
        </mxCell>
        <mxCell id="7JDwlH0h02J3nJGDVh9B-10" value="VLAN 1/16 (IDF)&lt;br&gt;192.168.2.1&lt;br&gt;255.255.0.0" style="fontColor=#0066CC;verticalAlign=top;verticalLabelPosition=bottom;labelPosition=center;align=center;html=1;outlineConnect=0;fillColor=#CCCCCC;strokeColor=#6881B3;gradientColor=none;gradientDirection=north;strokeWidth=2;shape=mxgraph.networks.switch;fontSize=18;" vertex="1" parent="1">
          <mxGeometry x="1068" y="190" width="212" height="50" as="geometry" />
        </mxCell>
        <mxCell id="7JDwlH0h02J3nJGDVh9B-19" value="192.168.2.3" style="fontColor=#0066CC;verticalAlign=top;verticalLabelPosition=bottom;labelPosition=center;align=center;html=1;outlineConnect=0;fillColor=#CCCCCC;strokeColor=#6881B3;gradientColor=none;gradientDirection=north;strokeWidth=2;shape=mxgraph.networks.pc;fontSize=16;" vertex="1" parent="1">
          <mxGeometry x="1600" y="50" width="170" height="130" as="geometry" />
        </mxCell>
        <mxCell id="7JDwlH0h02J3nJGDVh9B-33" style="edgeStyle=orthogonalEdgeStyle;rounded=0;orthogonalLoop=1;jettySize=auto;html=1;exitX=1;exitY=0.7;exitDx=0;exitDy=0;exitPerimeter=0;strokeWidth=3;dashed=1;" edge="1" parent="1" source="7JDwlH0h02J3nJGDVh9B-21" target="7JDwlH0h02J3nJGDVh9B-32">
          <mxGeometry relative="1" as="geometry" />
        </mxCell>
        <mxCell id="7JDwlH0h02J3nJGDVh9B-34" style="edgeStyle=orthogonalEdgeStyle;rounded=0;orthogonalLoop=1;jettySize=auto;html=1;exitX=0.98;exitY=0.94;exitDx=0;exitDy=0;exitPerimeter=0;dashed=1;strokeWidth=3;" edge="1" parent="1" source="7JDwlH0h02J3nJGDVh9B-21" target="7JDwlH0h02J3nJGDVh9B-31">
          <mxGeometry relative="1" as="geometry" />
        </mxCell>
        <mxCell id="7JDwlH0h02J3nJGDVh9B-36" style="edgeStyle=orthogonalEdgeStyle;rounded=0;orthogonalLoop=1;jettySize=auto;html=1;exitX=0.5;exitY=1;exitDx=0;exitDy=0;exitPerimeter=0;dashed=1;strokeWidth=3;entryX=0.15;entryY=0.5;entryDx=0;entryDy=0;entryPerimeter=0;" edge="1" parent="1" source="7JDwlH0h02J3nJGDVh9B-21" target="7JDwlH0h02J3nJGDVh9B-35">
          <mxGeometry relative="1" as="geometry">
            <Array as="points">
              <mxPoint x="1174" y="650" />
              <mxPoint x="1600" y="650" />
              <mxPoint x="1600" y="636" />
            </Array>
          </mxGeometry>
        </mxCell>
        <mxCell id="7JDwlH0h02J3nJGDVh9B-21" value="192.168.2.2" style="fontColor=#0066CC;verticalAlign=top;verticalLabelPosition=bottom;labelPosition=center;align=center;html=1;outlineConnect=0;fillColor=#CCCCCC;strokeColor=#6881B3;gradientColor=none;gradientDirection=north;strokeWidth=2;shape=mxgraph.networks.wireless_hub;" vertex="1" parent="1">
          <mxGeometry x="1124" y="355" width="100" height="85" as="geometry" />
        </mxCell>
        <mxCell id="7JDwlH0h02J3nJGDVh9B-24" value="192.168.2.4" style="fontColor=#0066CC;verticalAlign=top;verticalLabelPosition=bottom;labelPosition=center;align=center;html=1;outlineConnect=0;fillColor=#CCCCCC;strokeColor=#6881B3;gradientColor=none;gradientDirection=north;strokeWidth=2;shape=mxgraph.networks.pc;fontSize=16;" vertex="1" parent="1">
          <mxGeometry x="1600" y="220" width="170" height="130" as="geometry" />
        </mxCell>
        <mxCell id="7JDwlH0h02J3nJGDVh9B-31" value="192.168.2.7" style="fontColor=#0066CC;verticalAlign=top;verticalLabelPosition=bottom;labelPosition=center;align=center;html=1;outlineConnect=0;fillColor=#CCCCCC;strokeColor=#6881B3;gradientColor=none;gradientDirection=north;strokeWidth=2;shape=mxgraph.networks.copier;" vertex="1" parent="1">
          <mxGeometry x="1320" y="490" width="100" height="100" as="geometry" />
        </mxCell>
        <mxCell id="7JDwlH0h02J3nJGDVh9B-32" value="192.168.2.8" style="fontColor=#0066CC;verticalAlign=top;verticalLabelPosition=bottom;labelPosition=center;align=center;html=1;outlineConnect=0;fillColor=#CCCCCC;strokeColor=#6881B3;gradientColor=none;gradientDirection=north;strokeWidth=2;shape=mxgraph.networks.copier;" vertex="1" parent="1">
          <mxGeometry x="1440" y="490" width="100" height="100" as="geometry" />
        </mxCell>
        <mxCell id="7JDwlH0h02J3nJGDVh9B-35" value="192.168.2.6" style="fontColor=#0066CC;verticalAlign=top;verticalLabelPosition=bottom;labelPosition=center;align=center;html=1;outlineConnect=0;fillColor=#CCCCCC;strokeColor=#6881B3;gradientColor=none;gradientDirection=north;strokeWidth=2;shape=mxgraph.networks.laptop;" vertex="1" parent="1">
          <mxGeometry x="1622.5" y="600" width="125" height="72.5" as="geometry" />
        </mxCell>
        <mxCell id="7JDwlH0h02J3nJGDVh9B-46" style="edgeStyle=orthogonalEdgeStyle;rounded=0;orthogonalLoop=1;jettySize=auto;html=1;exitX=0.95;exitY=0.05;exitDx=0;exitDy=0;exitPerimeter=0;entryX=0;entryY=0.7;entryDx=0;entryDy=0;entryPerimeter=0;fontSize=18;strokeWidth=3;endArrow=none;endFill=0;" edge="1" parent="1" source="7JDwlH0h02J3nJGDVh9B-37" target="7JDwlH0h02J3nJGDVh9B-45">
          <mxGeometry relative="1" as="geometry" />
        </mxCell>
        <mxCell id="7JDwlH0h02J3nJGDVh9B-50" style="edgeStyle=orthogonalEdgeStyle;rounded=0;orthogonalLoop=1;jettySize=auto;html=1;exitX=0.05;exitY=0.05;exitDx=0;exitDy=0;exitPerimeter=0;entryX=1;entryY=0.5;entryDx=0;entryDy=0;entryPerimeter=0;fontSize=18;strokeWidth=3;endArrow=none;endFill=0;" edge="1" parent="1" source="7JDwlH0h02J3nJGDVh9B-37" target="7JDwlH0h02J3nJGDVh9B-49">
          <mxGeometry relative="1" as="geometry">
            <Array as="points">
              <mxPoint x="491" y="370" />
            </Array>
          </mxGeometry>
        </mxCell>
        <mxCell id="7JDwlH0h02J3nJGDVh9B-51" style="edgeStyle=orthogonalEdgeStyle;rounded=0;orthogonalLoop=1;jettySize=auto;html=1;exitX=0;exitY=0.5;exitDx=0;exitDy=0;exitPerimeter=0;entryX=1;entryY=0.5;entryDx=0;entryDy=0;entryPerimeter=0;fontSize=18;strokeWidth=3;endArrow=none;endFill=0;" edge="1" parent="1" source="7JDwlH0h02J3nJGDVh9B-37" target="7JDwlH0h02J3nJGDVh9B-48">
          <mxGeometry relative="1" as="geometry" />
        </mxCell>
        <mxCell id="7JDwlH0h02J3nJGDVh9B-52" style="edgeStyle=orthogonalEdgeStyle;rounded=0;orthogonalLoop=1;jettySize=auto;html=1;exitX=0.1;exitY=1;exitDx=0;exitDy=0;exitPerimeter=0;entryX=1;entryY=0.5;entryDx=0;entryDy=0;entryPerimeter=0;fontSize=18;strokeWidth=3;endArrow=none;endFill=0;" edge="1" parent="1" source="7JDwlH0h02J3nJGDVh9B-37" target="7JDwlH0h02J3nJGDVh9B-47">
          <mxGeometry relative="1" as="geometry">
            <Array as="points">
              <mxPoint x="331" y="490" />
              <mxPoint x="270" y="490" />
              <mxPoint x="270" y="685" />
              <mxPoint x="210" y="685" />
            </Array>
          </mxGeometry>
        </mxCell>
        <mxCell id="7JDwlH0h02J3nJGDVh9B-55" value="Trunk&lt;br&gt;&lt;font style=&quot;font-size: 33px&quot;&gt;Port 6&lt;br style=&quot;font-size: 33px&quot;&gt;&lt;/font&gt;" style="edgeStyle=orthogonalEdgeStyle;rounded=0;orthogonalLoop=1;jettySize=auto;html=1;fontSize=33;strokeWidth=3;endArrow=none;endFill=0;exitX=0.1;exitY=1;exitDx=0;exitDy=0;exitPerimeter=0;entryX=0.95;entryY=0.05;entryDx=0;entryDy=0;entryPerimeter=0;" edge="1" parent="1" source="ds0_vy_Eozye5HKEika6-1" target="7JDwlH0h02J3nJGDVh9B-54">
          <mxGeometry relative="1" as="geometry">
            <Array as="points">
              <mxPoint x="877" y="720" />
              <mxPoint x="810" y="720" />
              <mxPoint x="810" y="1003" />
            </Array>
          </mxGeometry>
        </mxCell>
        <mxCell id="7JDwlH0h02J3nJGDVh9B-37" value="&lt;span style=&quot;font-size: 18px&quot;&gt;VLAN 2/16 (IDF)&lt;br&gt;&lt;/span&gt;192.168.3.1&lt;br&gt;255.255.0.0" style="fontColor=#0066CC;verticalAlign=top;verticalLabelPosition=bottom;labelPosition=center;align=center;html=1;outlineConnect=0;fillColor=#CCCCCC;strokeColor=#6881B3;gradientColor=none;gradientDirection=north;strokeWidth=2;shape=mxgraph.networks.switch;fontSize=16;" vertex="1" parent="1">
          <mxGeometry x="310" y="435" width="212" height="50" as="geometry" />
        </mxCell>
        <mxCell id="7JDwlH0h02J3nJGDVh9B-39" value="192.168.2.5" style="fontColor=#0066CC;verticalAlign=top;verticalLabelPosition=bottom;labelPosition=center;align=center;html=1;outlineConnect=0;fillColor=#CCCCCC;strokeColor=#6881B3;gradientColor=none;gradientDirection=north;strokeWidth=2;shape=mxgraph.networks.pc;fontSize=16;" vertex="1" parent="1">
          <mxGeometry x="1600" y="410" width="170" height="130" as="geometry" />
        </mxCell>
        <mxCell id="7JDwlH0h02J3nJGDVh9B-40" value="Legend" style="rounded=0;whiteSpace=wrap;html=1;fontSize=33;labelPosition=center;verticalLabelPosition=top;align=center;verticalAlign=bottom;fillColor=#f5f5f5;strokeColor=#666666;fontColor=#333333;" vertex="1" parent="1">
          <mxGeometry x="1900" y="70" width="420" height="650" as="geometry" />
        </mxCell>
        <mxCell id="ds0_vy_Eozye5HKEika6-41" value="" style="edgeStyle=orthogonalEdgeStyle;rounded=0;orthogonalLoop=1;jettySize=auto;html=1;dashed=1;fontSize=33;endArrow=none;endFill=0;strokeWidth=3;" edge="1" parent="1" source="7JDwlH0h02J3nJGDVh9B-45" target="7JDwlH0h02J3nJGDVh9B-64">
          <mxGeometry relative="1" as="geometry" />
        </mxCell>
        <mxCell id="ds0_vy_Eozye5HKEika6-42" style="edgeStyle=orthogonalEdgeStyle;rounded=0;orthogonalLoop=1;jettySize=auto;html=1;exitX=0.82;exitY=0;exitDx=0;exitDy=0;exitPerimeter=0;entryX=0.5;entryY=1;entryDx=0;entryDy=0;entryPerimeter=0;dashed=1;fontSize=33;endArrow=none;endFill=0;strokeWidth=3;" edge="1" parent="1" source="7JDwlH0h02J3nJGDVh9B-45" target="7JDwlH0h02J3nJGDVh9B-58">
          <mxGeometry relative="1" as="geometry" />
        </mxCell>
        <mxCell id="ds0_vy_Eozye5HKEika6-43" style="edgeStyle=orthogonalEdgeStyle;rounded=0;orthogonalLoop=1;jettySize=auto;html=1;exitX=0.02;exitY=0.94;exitDx=0;exitDy=0;exitPerimeter=0;entryX=0.97;entryY=0.18;entryDx=0;entryDy=0;entryPerimeter=0;dashed=1;fontSize=33;endArrow=none;endFill=0;strokeWidth=3;" edge="1" parent="1" source="7JDwlH0h02J3nJGDVh9B-45" target="7JDwlH0h02J3nJGDVh9B-56">
          <mxGeometry relative="1" as="geometry" />
        </mxCell>
        <mxCell id="ds0_vy_Eozye5HKEika6-44" style="edgeStyle=orthogonalEdgeStyle;rounded=0;orthogonalLoop=1;jettySize=auto;html=1;exitX=0.5;exitY=1;exitDx=0;exitDy=0;exitPerimeter=0;dashed=1;fontSize=33;endArrow=none;endFill=0;strokeWidth=3;" edge="1" parent="1" source="7JDwlH0h02J3nJGDVh9B-45" target="7JDwlH0h02J3nJGDVh9B-57">
          <mxGeometry relative="1" as="geometry" />
        </mxCell>
        <mxCell id="7JDwlH0h02J3nJGDVh9B-45" value="192.168.3.2" style="fontColor=#0066CC;verticalAlign=top;verticalLabelPosition=bottom;labelPosition=center;align=center;html=1;outlineConnect=0;fillColor=#CCCCCC;strokeColor=#6881B3;gradientColor=none;gradientDirection=north;strokeWidth=2;shape=mxgraph.networks.wireless_hub;fontSize=18;" vertex="1" parent="1">
          <mxGeometry x="580" y="610" width="100" height="85" as="geometry" />
        </mxCell>
        <mxCell id="7JDwlH0h02J3nJGDVh9B-47" value="192.168.3.5" style="fontColor=#0066CC;verticalAlign=top;verticalLabelPosition=bottom;labelPosition=center;align=center;html=1;outlineConnect=0;fillColor=#CCCCCC;strokeColor=#6881B3;gradientColor=none;gradientDirection=north;strokeWidth=2;shape=mxgraph.networks.pc;fontSize=16;" vertex="1" parent="1">
          <mxGeometry x="40" y="630" width="170" height="130" as="geometry" />
        </mxCell>
        <mxCell id="7JDwlH0h02J3nJGDVh9B-48" value="192.168.3.4" style="fontColor=#0066CC;verticalAlign=top;verticalLabelPosition=bottom;labelPosition=center;align=center;html=1;outlineConnect=0;fillColor=#CCCCCC;strokeColor=#6881B3;gradientColor=none;gradientDirection=north;strokeWidth=2;shape=mxgraph.networks.pc;fontSize=16;" vertex="1" parent="1">
          <mxGeometry x="40" y="470" width="170" height="130" as="geometry" />
        </mxCell>
        <mxCell id="7JDwlH0h02J3nJGDVh9B-49" value="192.168.3.3" style="fontColor=#0066CC;verticalAlign=top;verticalLabelPosition=bottom;labelPosition=center;align=center;html=1;outlineConnect=0;fillColor=#CCCCCC;strokeColor=#6881B3;gradientColor=none;gradientDirection=north;strokeWidth=2;shape=mxgraph.networks.pc;fontSize=16;" vertex="1" parent="1">
          <mxGeometry x="40" y="305" width="170" height="130" as="geometry" />
        </mxCell>
        <mxCell id="7JDwlH0h02J3nJGDVh9B-69" style="edgeStyle=orthogonalEdgeStyle;rounded=0;orthogonalLoop=1;jettySize=auto;html=1;exitX=0.05;exitY=0.05;exitDx=0;exitDy=0;exitPerimeter=0;entryX=1;entryY=0.5;entryDx=0;entryDy=0;entryPerimeter=0;fontSize=33;strokeWidth=3;" edge="1" parent="1" source="7JDwlH0h02J3nJGDVh9B-54" target="7JDwlH0h02J3nJGDVh9B-68">
          <mxGeometry relative="1" as="geometry" />
        </mxCell>
        <mxCell id="7JDwlH0h02J3nJGDVh9B-70" style="edgeStyle=orthogonalEdgeStyle;rounded=0;orthogonalLoop=1;jettySize=auto;html=1;exitX=0;exitY=0.5;exitDx=0;exitDy=0;exitPerimeter=0;entryX=1;entryY=0.5;entryDx=0;entryDy=0;entryPerimeter=0;fontSize=33;strokeWidth=3;endArrow=none;endFill=0;" edge="1" parent="1" source="7JDwlH0h02J3nJGDVh9B-54" target="7JDwlH0h02J3nJGDVh9B-67">
          <mxGeometry relative="1" as="geometry" />
        </mxCell>
        <mxCell id="7JDwlH0h02J3nJGDVh9B-71" style="edgeStyle=orthogonalEdgeStyle;rounded=0;orthogonalLoop=1;jettySize=auto;html=1;exitX=0.1;exitY=1;exitDx=0;exitDy=0;exitPerimeter=0;entryX=1;entryY=0.5;entryDx=0;entryDy=0;entryPerimeter=0;fontSize=33;strokeWidth=3;" edge="1" parent="1" source="7JDwlH0h02J3nJGDVh9B-54" target="7JDwlH0h02J3nJGDVh9B-66">
          <mxGeometry relative="1" as="geometry" />
        </mxCell>
        <mxCell id="7JDwlH0h02J3nJGDVh9B-73" value="Trunk&lt;br&gt;Port 7" style="edgeStyle=orthogonalEdgeStyle;rounded=0;orthogonalLoop=1;jettySize=auto;html=1;exitX=0.5;exitY=1;exitDx=0;exitDy=0;exitPerimeter=0;entryX=0;entryY=0.5;entryDx=0;entryDy=0;entryPerimeter=0;fontSize=33;strokeWidth=3;endArrow=none;endFill=0;" edge="1" parent="1" source="ds0_vy_Eozye5HKEika6-1" target="7JDwlH0h02J3nJGDVh9B-72">
          <mxGeometry relative="1" as="geometry">
            <Array as="points">
              <mxPoint x="930" y="640" />
              <mxPoint x="930" y="1015" />
            </Array>
          </mxGeometry>
        </mxCell>
        <mxCell id="7JDwlH0h02J3nJGDVh9B-78" style="edgeStyle=orthogonalEdgeStyle;rounded=0;orthogonalLoop=1;jettySize=auto;html=1;exitX=0.5;exitY=1;exitDx=0;exitDy=0;exitPerimeter=0;fontSize=33;endArrow=none;endFill=0;strokeWidth=3;" edge="1" parent="1" source="7JDwlH0h02J3nJGDVh9B-54" target="7JDwlH0h02J3nJGDVh9B-76">
          <mxGeometry relative="1" as="geometry" />
        </mxCell>
        <mxCell id="7JDwlH0h02J3nJGDVh9B-54" value="&lt;span style=&quot;font-size: 18px&quot;&gt;VLAN 3/216 (IDF)&lt;br&gt;&lt;/span&gt;192.168.4.1&lt;br&gt;255.255.0.0" style="fontColor=#0066CC;verticalAlign=top;verticalLabelPosition=bottom;labelPosition=center;align=center;html=1;outlineConnect=0;fillColor=#CCCCCC;strokeColor=#6881B3;gradientColor=none;gradientDirection=north;strokeWidth=2;shape=mxgraph.networks.switch;fontSize=16;" vertex="1" parent="1">
          <mxGeometry x="390" y="1000" width="212" height="50" as="geometry" />
        </mxCell>
        <mxCell id="7JDwlH0h02J3nJGDVh9B-56" value="&lt;span style=&quot;font-size: 16px&quot;&gt;192.168.3.7&lt;/span&gt;" style="fontColor=#0066CC;verticalAlign=top;verticalLabelPosition=bottom;labelPosition=center;align=center;html=1;outlineConnect=0;fillColor=#CCCCCC;strokeColor=#6881B3;gradientColor=none;gradientDirection=north;strokeWidth=2;shape=mxgraph.networks.video_projector;fontSize=33;" vertex="1" parent="1">
          <mxGeometry x="380" y="605" width="100" height="35" as="geometry" />
        </mxCell>
        <mxCell id="7JDwlH0h02J3nJGDVh9B-57" value="&lt;span style=&quot;font-size: 16px&quot;&gt;192.168.3.6&lt;/span&gt;" style="fontColor=#0066CC;verticalAlign=top;verticalLabelPosition=bottom;labelPosition=center;align=center;html=1;outlineConnect=0;fillColor=#CCCCCC;strokeColor=#6881B3;gradientColor=none;gradientDirection=north;strokeWidth=2;shape=mxgraph.networks.copier;fontSize=33;" vertex="1" parent="1">
          <mxGeometry x="368" y="695" width="100" height="100" as="geometry" />
        </mxCell>
        <mxCell id="7JDwlH0h02J3nJGDVh9B-58" value="&lt;span style=&quot;font-size: 16px&quot;&gt;192.168.3.9&lt;/span&gt;" style="fontColor=#0066CC;verticalAlign=top;verticalLabelPosition=bottom;labelPosition=center;align=center;html=1;outlineConnect=0;fillColor=#CCCCCC;strokeColor=#6881B3;gradientColor=none;gradientDirection=north;strokeWidth=2;shape=mxgraph.networks.laptop;fontSize=33;" vertex="1" parent="1">
          <mxGeometry x="730" y="555" width="100" height="55" as="geometry" />
        </mxCell>
        <mxCell id="7JDwlH0h02J3nJGDVh9B-64" value="&lt;span style=&quot;font-size: 16px&quot;&gt;192.168.3.8&lt;/span&gt;" style="fontColor=#0066CC;verticalAlign=top;verticalLabelPosition=bottom;labelPosition=center;align=center;html=1;outlineConnect=0;fillColor=#CCCCCC;strokeColor=#6881B3;gradientColor=none;gradientDirection=north;strokeWidth=2;shape=mxgraph.networks.tablet;fontSize=33;" vertex="1" parent="1">
          <mxGeometry x="560" y="490" width="100" height="70" as="geometry" />
        </mxCell>
        <mxCell id="7JDwlH0h02J3nJGDVh9B-66" value="192.168.4.5" style="fontColor=#0066CC;verticalAlign=top;verticalLabelPosition=bottom;labelPosition=center;align=center;html=1;outlineConnect=0;fillColor=#CCCCCC;strokeColor=#6881B3;gradientColor=none;gradientDirection=north;strokeWidth=2;shape=mxgraph.networks.pc;fontSize=16;" vertex="1" parent="1">
          <mxGeometry x="40" y="1220" width="170" height="130" as="geometry" />
        </mxCell>
        <mxCell id="7JDwlH0h02J3nJGDVh9B-67" value="192.168.4.4" style="fontColor=#0066CC;verticalAlign=top;verticalLabelPosition=bottom;labelPosition=center;align=center;html=1;outlineConnect=0;fillColor=#CCCCCC;strokeColor=#6881B3;gradientColor=none;gradientDirection=north;strokeWidth=2;shape=mxgraph.networks.pc;fontSize=16;" vertex="1" parent="1">
          <mxGeometry x="40" y="1040" width="170" height="130" as="geometry" />
        </mxCell>
        <mxCell id="7JDwlH0h02J3nJGDVh9B-68" value="192.168.4.3" style="fontColor=#0066CC;verticalAlign=top;verticalLabelPosition=bottom;labelPosition=center;align=center;html=1;outlineConnect=0;fillColor=#CCCCCC;strokeColor=#6881B3;gradientColor=none;gradientDirection=north;strokeWidth=2;shape=mxgraph.networks.pc;fontSize=16;" vertex="1" parent="1">
          <mxGeometry x="40" y="850" width="170" height="130" as="geometry" />
        </mxCell>
        <mxCell id="7JDwlH0h02J3nJGDVh9B-104" style="edgeStyle=orthogonalEdgeStyle;rounded=0;orthogonalLoop=1;jettySize=auto;html=1;exitX=0.5;exitY=1;exitDx=0;exitDy=0;exitPerimeter=0;fontSize=33;endArrow=none;endFill=0;strokeWidth=3;" edge="1" parent="1" source="7JDwlH0h02J3nJGDVh9B-72" target="7JDwlH0h02J3nJGDVh9B-103">
          <mxGeometry relative="1" as="geometry" />
        </mxCell>
        <mxCell id="7JDwlH0h02J3nJGDVh9B-72" value="&lt;span style=&quot;font-size: 18px&quot;&gt;VLAN 4/16 (IDF)&lt;br&gt;&lt;/span&gt;192.168.4.1&lt;br&gt;255.255.0.0" style="fontColor=#0066CC;verticalAlign=top;verticalLabelPosition=bottom;labelPosition=center;align=center;html=1;outlineConnect=0;fillColor=#CCCCCC;strokeColor=#6881B3;gradientColor=none;gradientDirection=north;strokeWidth=2;shape=mxgraph.networks.switch;fontSize=16;" vertex="1" parent="1">
          <mxGeometry x="1050" y="990" width="212" height="50" as="geometry" />
        </mxCell>
        <mxCell id="ds0_vy_Eozye5HKEika6-13" style="edgeStyle=orthogonalEdgeStyle;rounded=0;orthogonalLoop=1;jettySize=auto;html=1;exitX=0.9;exitY=1;exitDx=0;exitDy=0;exitPerimeter=0;fontSize=33;endArrow=none;endFill=0;strokeWidth=3;" edge="1" parent="1" source="7JDwlH0h02J3nJGDVh9B-74" target="ds0_vy_Eozye5HKEika6-12">
          <mxGeometry relative="1" as="geometry">
            <Array as="points">
              <mxPoint x="2051" y="1120" />
              <mxPoint x="1920" y="1120" />
            </Array>
          </mxGeometry>
        </mxCell>
        <mxCell id="ds0_vy_Eozye5HKEika6-21" style="edgeStyle=orthogonalEdgeStyle;rounded=0;orthogonalLoop=1;jettySize=auto;html=1;exitX=1;exitY=0.5;exitDx=0;exitDy=0;exitPerimeter=0;entryX=0.43;entryY=1;entryDx=0;entryDy=0;entryPerimeter=0;fontSize=33;endArrow=none;endFill=0;strokeWidth=3;" edge="1" parent="1" source="7JDwlH0h02J3nJGDVh9B-74" target="ds0_vy_Eozye5HKEika6-17">
          <mxGeometry relative="1" as="geometry" />
        </mxCell>
        <mxCell id="ds0_vy_Eozye5HKEika6-35" style="edgeStyle=orthogonalEdgeStyle;rounded=0;orthogonalLoop=1;jettySize=auto;html=1;exitX=0;exitY=0.5;exitDx=0;exitDy=0;exitPerimeter=0;entryX=1;entryY=0.07;entryDx=0;entryDy=0;entryPerimeter=0;fontSize=33;endArrow=none;endFill=0;strokeWidth=3;" edge="1" parent="1" source="7JDwlH0h02J3nJGDVh9B-74" target="7JDwlH0h02J3nJGDVh9B-115">
          <mxGeometry relative="1" as="geometry" />
        </mxCell>
        <mxCell id="7JDwlH0h02J3nJGDVh9B-74" value="&lt;span style=&quot;font-size: 18px&quot;&gt;VLAN 5/16 (IDF)&lt;br&gt;&lt;/span&gt;192.168.5.1&lt;br&gt;255.255.0.0" style="fontColor=#0066CC;verticalAlign=top;verticalLabelPosition=bottom;labelPosition=center;align=center;html=1;outlineConnect=0;fillColor=#CCCCCC;strokeColor=#6881B3;gradientColor=none;gradientDirection=north;strokeWidth=2;shape=mxgraph.networks.switch;fontSize=16;" vertex="1" parent="1">
          <mxGeometry x="1860" y="990" width="212" height="50" as="geometry" />
        </mxCell>
        <mxCell id="7JDwlH0h02J3nJGDVh9B-90" style="edgeStyle=orthogonalEdgeStyle;rounded=0;orthogonalLoop=1;jettySize=auto;html=1;exitX=0;exitY=0.7;exitDx=0;exitDy=0;exitPerimeter=0;entryX=0.85;entryY=0.5;entryDx=0;entryDy=0;entryPerimeter=0;fontSize=52;endArrow=none;endFill=0;strokeWidth=3;dashed=1;" edge="1" parent="1" source="7JDwlH0h02J3nJGDVh9B-76" target="7JDwlH0h02J3nJGDVh9B-85">
          <mxGeometry relative="1" as="geometry">
            <Array as="points">
              <mxPoint x="490" y="1310" />
              <mxPoint x="365" y="1310" />
            </Array>
          </mxGeometry>
        </mxCell>
        <mxCell id="7JDwlH0h02J3nJGDVh9B-91" style="edgeStyle=orthogonalEdgeStyle;rounded=0;orthogonalLoop=1;jettySize=auto;html=1;exitX=0;exitY=0.7;exitDx=0;exitDy=0;exitPerimeter=0;entryX=0.85;entryY=0.5;entryDx=0;entryDy=0;entryPerimeter=0;fontSize=52;endArrow=none;endFill=0;strokeWidth=3;dashed=1;" edge="1" parent="1" source="7JDwlH0h02J3nJGDVh9B-76" target="7JDwlH0h02J3nJGDVh9B-86">
          <mxGeometry relative="1" as="geometry">
            <Array as="points">
              <mxPoint x="490" y="1310" />
              <mxPoint x="400" y="1310" />
              <mxPoint x="400" y="1448" />
            </Array>
          </mxGeometry>
        </mxCell>
        <mxCell id="7JDwlH0h02J3nJGDVh9B-92" style="edgeStyle=orthogonalEdgeStyle;rounded=0;orthogonalLoop=1;jettySize=auto;html=1;exitX=0;exitY=0.7;exitDx=0;exitDy=0;exitPerimeter=0;entryX=0.85;entryY=0.5;entryDx=0;entryDy=0;entryPerimeter=0;fontSize=52;endArrow=none;endFill=0;strokeWidth=3;dashed=1;" edge="1" parent="1" source="7JDwlH0h02J3nJGDVh9B-76" target="7JDwlH0h02J3nJGDVh9B-87">
          <mxGeometry relative="1" as="geometry">
            <Array as="points">
              <mxPoint x="490" y="1310" />
              <mxPoint x="420" y="1310" />
              <mxPoint x="420" y="1568" />
            </Array>
          </mxGeometry>
        </mxCell>
        <mxCell id="7JDwlH0h02J3nJGDVh9B-93" style="edgeStyle=orthogonalEdgeStyle;rounded=0;orthogonalLoop=1;jettySize=auto;html=1;exitX=0.5;exitY=1;exitDx=0;exitDy=0;exitPerimeter=0;entryX=1;entryY=0.5;entryDx=0;entryDy=0;entryPerimeter=0;dashed=1;fontSize=52;endArrow=none;endFill=0;strokeWidth=3;" edge="1" parent="1" source="7JDwlH0h02J3nJGDVh9B-76" target="7JDwlH0h02J3nJGDVh9B-88">
          <mxGeometry relative="1" as="geometry" />
        </mxCell>
        <mxCell id="7JDwlH0h02J3nJGDVh9B-94" style="edgeStyle=orthogonalEdgeStyle;rounded=0;orthogonalLoop=1;jettySize=auto;html=1;exitX=0.5;exitY=1;exitDx=0;exitDy=0;exitPerimeter=0;entryX=1;entryY=0.5;entryDx=0;entryDy=0;entryPerimeter=0;dashed=1;fontSize=52;endArrow=none;endFill=0;strokeWidth=3;" edge="1" parent="1" source="7JDwlH0h02J3nJGDVh9B-76" target="7JDwlH0h02J3nJGDVh9B-89">
          <mxGeometry relative="1" as="geometry" />
        </mxCell>
        <mxCell id="7JDwlH0h02J3nJGDVh9B-113" style="edgeStyle=orthogonalEdgeStyle;rounded=0;orthogonalLoop=1;jettySize=auto;html=1;exitX=0.98;exitY=0.94;exitDx=0;exitDy=0;exitPerimeter=0;entryX=0.5;entryY=0;entryDx=0;entryDy=0;entryPerimeter=0;dashed=1;fontSize=33;endArrow=none;endFill=0;strokeWidth=3;" edge="1" parent="1" source="7JDwlH0h02J3nJGDVh9B-76" target="7JDwlH0h02J3nJGDVh9B-112">
          <mxGeometry relative="1" as="geometry" />
        </mxCell>
        <mxCell id="7JDwlH0h02J3nJGDVh9B-76" value="192.168.4.2" style="fontColor=#0066CC;verticalAlign=top;verticalLabelPosition=bottom;labelPosition=center;align=center;html=1;outlineConnect=0;fillColor=#CCCCCC;strokeColor=#6881B3;gradientColor=none;gradientDirection=north;strokeWidth=2;shape=mxgraph.networks.wireless_hub;fontSize=18;" vertex="1" parent="1">
          <mxGeometry x="490" y="1200" width="100" height="85" as="geometry" />
        </mxCell>
        <mxCell id="7JDwlH0h02J3nJGDVh9B-81" value="&lt;font style=&quot;font-size: 33px&quot;&gt;Router:&lt;br&gt;Switch:&lt;br&gt;Wireless router:&lt;br&gt;Wired:&lt;br&gt;Wireless:&lt;br&gt;Administration: VLAN 1&lt;br&gt;Marketing: VLAN 2&lt;br&gt;IT: VLAN 3&lt;br&gt;Finance: VLAN 4&lt;br&gt;Executive: VLAN 5&lt;br&gt;&lt;/font&gt;" style="text;html=1;strokeColor=none;fillColor=none;align=left;verticalAlign=top;whiteSpace=wrap;rounded=0;fontSize=52;" vertex="1" parent="1">
          <mxGeometry x="1906" y="76.25" width="420" height="637.5" as="geometry" />
        </mxCell>
        <mxCell id="7JDwlH0h02J3nJGDVh9B-85" value="&lt;span style=&quot;font-size: 16px&quot;&gt;192.168.4.6&lt;/span&gt;" style="fontColor=#0066CC;verticalAlign=top;verticalLabelPosition=bottom;labelPosition=center;align=center;html=1;outlineConnect=0;fillColor=#CCCCCC;strokeColor=#6881B3;gradientColor=none;gradientDirection=north;strokeWidth=2;shape=mxgraph.networks.laptop;fontSize=33;" vertex="1" parent="1">
          <mxGeometry x="280" y="1330" width="100" height="55" as="geometry" />
        </mxCell>
        <mxCell id="7JDwlH0h02J3nJGDVh9B-86" value="&lt;span style=&quot;font-size: 16px&quot;&gt;192.168.4.7&lt;/span&gt;" style="fontColor=#0066CC;verticalAlign=top;verticalLabelPosition=bottom;labelPosition=center;align=center;html=1;outlineConnect=0;fillColor=#CCCCCC;strokeColor=#6881B3;gradientColor=none;gradientDirection=north;strokeWidth=2;shape=mxgraph.networks.laptop;fontSize=33;" vertex="1" parent="1">
          <mxGeometry x="280" y="1442.5" width="100" height="55" as="geometry" />
        </mxCell>
        <mxCell id="7JDwlH0h02J3nJGDVh9B-87" value="&lt;span style=&quot;font-size: 16px&quot;&gt;192.168.4.8&lt;/span&gt;" style="fontColor=#0066CC;verticalAlign=top;verticalLabelPosition=bottom;labelPosition=center;align=center;html=1;outlineConnect=0;fillColor=#CCCCCC;strokeColor=#6881B3;gradientColor=none;gradientDirection=north;strokeWidth=2;shape=mxgraph.networks.laptop;fontSize=33;" vertex="1" parent="1">
          <mxGeometry x="280" y="1540" width="100" height="55" as="geometry" />
        </mxCell>
        <mxCell id="7JDwlH0h02J3nJGDVh9B-88" value="&lt;span style=&quot;font-size: 16px&quot;&gt;192.168.4.9&lt;/span&gt;" style="fontColor=#0066CC;verticalAlign=top;verticalLabelPosition=bottom;labelPosition=center;align=center;html=1;outlineConnect=0;fillColor=#CCCCCC;strokeColor=#6881B3;gradientColor=none;gradientDirection=north;strokeWidth=2;shape=mxgraph.networks.tablet;fontSize=33;" vertex="1" parent="1">
          <mxGeometry x="430" y="1370" width="80" height="60" as="geometry" />
        </mxCell>
        <mxCell id="7JDwlH0h02J3nJGDVh9B-89" value="&lt;span style=&quot;font-size: 16px&quot;&gt;192.168.4.10&lt;/span&gt;" style="fontColor=#0066CC;verticalAlign=top;verticalLabelPosition=bottom;labelPosition=center;align=center;html=1;outlineConnect=0;fillColor=#CCCCCC;strokeColor=#6881B3;gradientColor=none;gradientDirection=north;strokeWidth=2;shape=mxgraph.networks.tablet;fontSize=33;" vertex="1" parent="1">
          <mxGeometry x="442" y="1490" width="80" height="60" as="geometry" />
        </mxCell>
        <mxCell id="7JDwlH0h02J3nJGDVh9B-96" value="192.168.4.3" style="fontColor=#0066CC;verticalAlign=top;verticalLabelPosition=bottom;labelPosition=center;align=center;html=1;outlineConnect=0;fillColor=#CCCCCC;strokeColor=#6881B3;gradientColor=none;gradientDirection=north;strokeWidth=2;shape=mxgraph.networks.pc;fontSize=16;" vertex="1" parent="1">
          <mxGeometry x="860" y="1120" width="170" height="130" as="geometry" />
        </mxCell>
        <mxCell id="7JDwlH0h02J3nJGDVh9B-97" value="192.168.4.4" style="fontColor=#0066CC;verticalAlign=top;verticalLabelPosition=bottom;labelPosition=center;align=center;html=1;outlineConnect=0;fillColor=#CCCCCC;strokeColor=#6881B3;gradientColor=none;gradientDirection=north;strokeWidth=2;shape=mxgraph.networks.pc;fontSize=16;" vertex="1" parent="1">
          <mxGeometry x="860" y="1285" width="170" height="130" as="geometry" />
        </mxCell>
        <mxCell id="7JDwlH0h02J3nJGDVh9B-98" value="192.168.4.5" style="fontColor=#0066CC;verticalAlign=top;verticalLabelPosition=bottom;labelPosition=center;align=center;html=1;outlineConnect=0;fillColor=#CCCCCC;strokeColor=#6881B3;gradientColor=none;gradientDirection=north;strokeWidth=2;shape=mxgraph.networks.pc;fontSize=16;" vertex="1" parent="1">
          <mxGeometry x="860" y="1450" width="170" height="130" as="geometry" />
        </mxCell>
        <mxCell id="7JDwlH0h02J3nJGDVh9B-99" value="192.168.4.6" style="fontColor=#0066CC;verticalAlign=top;verticalLabelPosition=bottom;labelPosition=center;align=center;html=1;outlineConnect=0;fillColor=#CCCCCC;strokeColor=#6881B3;gradientColor=none;gradientDirection=north;strokeWidth=2;shape=mxgraph.networks.pc;fontSize=16;" vertex="1" parent="1">
          <mxGeometry x="1054" y="1490" width="170" height="130" as="geometry" />
        </mxCell>
        <mxCell id="7JDwlH0h02J3nJGDVh9B-100" value="192.168.4.7" style="fontColor=#0066CC;verticalAlign=top;verticalLabelPosition=bottom;labelPosition=center;align=center;html=1;outlineConnect=0;fillColor=#CCCCCC;strokeColor=#6881B3;gradientColor=none;gradientDirection=north;strokeWidth=2;shape=mxgraph.networks.pc;fontSize=16;" vertex="1" parent="1">
          <mxGeometry x="1250" y="1450" width="170" height="130" as="geometry" />
        </mxCell>
        <mxCell id="7JDwlH0h02J3nJGDVh9B-101" value="192.168.4.8" style="fontColor=#0066CC;verticalAlign=top;verticalLabelPosition=bottom;labelPosition=center;align=center;html=1;outlineConnect=0;fillColor=#CCCCCC;strokeColor=#6881B3;gradientColor=none;gradientDirection=north;strokeWidth=2;shape=mxgraph.networks.pc;fontSize=16;" vertex="1" parent="1">
          <mxGeometry x="1250" y="1292.5" width="170" height="130" as="geometry" />
        </mxCell>
        <mxCell id="7JDwlH0h02J3nJGDVh9B-102" value="192.168.3.9" style="fontColor=#0066CC;verticalAlign=top;verticalLabelPosition=bottom;labelPosition=center;align=center;html=1;outlineConnect=0;fillColor=#CCCCCC;strokeColor=#6881B3;gradientColor=none;gradientDirection=north;strokeWidth=2;shape=mxgraph.networks.pc;fontSize=16;" vertex="1" parent="1">
          <mxGeometry x="1250" y="1130" width="170" height="130" as="geometry" />
        </mxCell>
        <mxCell id="7JDwlH0h02J3nJGDVh9B-105" style="edgeStyle=orthogonalEdgeStyle;rounded=0;orthogonalLoop=1;jettySize=auto;html=1;exitX=0;exitY=0.7;exitDx=0;exitDy=0;exitPerimeter=0;entryX=1;entryY=0.07;entryDx=0;entryDy=0;entryPerimeter=0;fontSize=33;endArrow=none;endFill=0;strokeWidth=3;dashed=1;" edge="1" parent="1" source="7JDwlH0h02J3nJGDVh9B-103" target="7JDwlH0h02J3nJGDVh9B-96">
          <mxGeometry relative="1" as="geometry" />
        </mxCell>
        <mxCell id="7JDwlH0h02J3nJGDVh9B-106" style="edgeStyle=orthogonalEdgeStyle;rounded=0;orthogonalLoop=1;jettySize=auto;html=1;exitX=0.02;exitY=0.94;exitDx=0;exitDy=0;exitPerimeter=0;entryX=1;entryY=0.07;entryDx=0;entryDy=0;entryPerimeter=0;dashed=1;fontSize=33;endArrow=none;endFill=0;strokeWidth=3;" edge="1" parent="1" source="7JDwlH0h02J3nJGDVh9B-103" target="7JDwlH0h02J3nJGDVh9B-97">
          <mxGeometry relative="1" as="geometry" />
        </mxCell>
        <mxCell id="7JDwlH0h02J3nJGDVh9B-107" style="edgeStyle=orthogonalEdgeStyle;rounded=0;orthogonalLoop=1;jettySize=auto;html=1;exitX=0.02;exitY=0.94;exitDx=0;exitDy=0;exitPerimeter=0;entryX=1;entryY=0.07;entryDx=0;entryDy=0;entryPerimeter=0;dashed=1;fontSize=33;endArrow=none;endFill=0;strokeWidth=3;" edge="1" parent="1" source="7JDwlH0h02J3nJGDVh9B-103" target="7JDwlH0h02J3nJGDVh9B-98">
          <mxGeometry relative="1" as="geometry">
            <Array as="points">
              <mxPoint x="1100" y="1200" />
              <mxPoint x="1100" y="1459" />
            </Array>
          </mxGeometry>
        </mxCell>
        <mxCell id="7JDwlH0h02J3nJGDVh9B-108" style="edgeStyle=orthogonalEdgeStyle;rounded=0;orthogonalLoop=1;jettySize=auto;html=1;exitX=0.5;exitY=1;exitDx=0;exitDy=0;exitPerimeter=0;dashed=1;fontSize=33;endArrow=none;endFill=0;strokeWidth=3;" edge="1" parent="1" source="7JDwlH0h02J3nJGDVh9B-103" target="7JDwlH0h02J3nJGDVh9B-99">
          <mxGeometry relative="1" as="geometry" />
        </mxCell>
        <mxCell id="7JDwlH0h02J3nJGDVh9B-109" style="edgeStyle=orthogonalEdgeStyle;rounded=0;orthogonalLoop=1;jettySize=auto;html=1;exitX=1;exitY=0.7;exitDx=0;exitDy=0;exitPerimeter=0;entryX=0;entryY=0;entryDx=0;entryDy=0;entryPerimeter=0;dashed=1;fontSize=33;endArrow=none;endFill=0;strokeWidth=3;" edge="1" parent="1" source="7JDwlH0h02J3nJGDVh9B-103" target="7JDwlH0h02J3nJGDVh9B-102">
          <mxGeometry relative="1" as="geometry" />
        </mxCell>
        <mxCell id="7JDwlH0h02J3nJGDVh9B-110" style="edgeStyle=orthogonalEdgeStyle;rounded=0;orthogonalLoop=1;jettySize=auto;html=1;exitX=0.98;exitY=0.94;exitDx=0;exitDy=0;exitPerimeter=0;entryX=0;entryY=0;entryDx=0;entryDy=0;entryPerimeter=0;dashed=1;fontSize=33;endArrow=none;endFill=0;strokeWidth=3;" edge="1" parent="1" source="7JDwlH0h02J3nJGDVh9B-103" target="7JDwlH0h02J3nJGDVh9B-101">
          <mxGeometry relative="1" as="geometry">
            <Array as="points">
              <mxPoint x="1230" y="1200" />
              <mxPoint x="1230" y="1293" />
            </Array>
          </mxGeometry>
        </mxCell>
        <mxCell id="7JDwlH0h02J3nJGDVh9B-111" style="edgeStyle=orthogonalEdgeStyle;rounded=0;orthogonalLoop=1;jettySize=auto;html=1;exitX=0.98;exitY=0.94;exitDx=0;exitDy=0;exitPerimeter=0;entryX=0;entryY=0;entryDx=0;entryDy=0;entryPerimeter=0;dashed=1;fontSize=33;endArrow=none;endFill=0;strokeWidth=3;" edge="1" parent="1" source="7JDwlH0h02J3nJGDVh9B-103" target="7JDwlH0h02J3nJGDVh9B-100">
          <mxGeometry relative="1" as="geometry">
            <Array as="points">
              <mxPoint x="1200" y="1200" />
              <mxPoint x="1200" y="1450" />
            </Array>
          </mxGeometry>
        </mxCell>
        <mxCell id="7JDwlH0h02J3nJGDVh9B-103" value="192.168.4.2" style="fontColor=#0066CC;verticalAlign=top;verticalLabelPosition=bottom;labelPosition=center;align=center;html=1;outlineConnect=0;fillColor=#CCCCCC;strokeColor=#6881B3;gradientColor=none;gradientDirection=north;strokeWidth=2;shape=mxgraph.networks.wireless_hub;fontSize=18;" vertex="1" parent="1">
          <mxGeometry x="1106" y="1120" width="100" height="85" as="geometry" />
        </mxCell>
        <mxCell id="7JDwlH0h02J3nJGDVh9B-112" value="&lt;span style=&quot;font-size: 16px&quot;&gt;192.168.4.11&lt;/span&gt;" style="fontColor=#0066CC;verticalAlign=top;verticalLabelPosition=bottom;labelPosition=center;align=center;html=1;outlineConnect=0;fillColor=#CCCCCC;strokeColor=#6881B3;gradientColor=none;gradientDirection=north;strokeWidth=2;shape=mxgraph.networks.printer;fontSize=33;" vertex="1" parent="1">
          <mxGeometry x="580" y="1385" width="100" height="100" as="geometry" />
        </mxCell>
        <mxCell id="7JDwlH0h02J3nJGDVh9B-115" value="Secretary Desktop&lt;br&gt;192.168.5.3" style="fontColor=#0066CC;verticalAlign=top;verticalLabelPosition=bottom;labelPosition=center;align=center;html=1;outlineConnect=0;fillColor=#CCCCCC;strokeColor=#6881B3;gradientColor=none;gradientDirection=north;strokeWidth=2;shape=mxgraph.networks.pc;fontSize=16;" vertex="1" parent="1">
          <mxGeometry x="1622.5" y="1000" width="170" height="130" as="geometry" />
        </mxCell>
        <mxCell id="7JDwlH0h02J3nJGDVh9B-117" value="" style="fontColor=#0066CC;verticalAlign=top;verticalLabelPosition=bottom;labelPosition=center;align=center;html=1;outlineConnect=0;fillColor=#CCCCCC;strokeColor=#6881B3;gradientColor=none;gradientDirection=north;strokeWidth=2;shape=mxgraph.networks.wireless_hub;" vertex="1" parent="1">
          <mxGeometry x="2150" y="210" width="100" height="45" as="geometry" />
        </mxCell>
        <mxCell id="7JDwlH0h02J3nJGDVh9B-118" value="" style="fontColor=#0066CC;verticalAlign=top;verticalLabelPosition=bottom;labelPosition=center;align=center;html=1;outlineConnect=0;fillColor=#CCCCCC;strokeColor=#6881B3;gradientColor=none;gradientDirection=north;strokeWidth=2;shape=mxgraph.networks.switch;fontSize=18;" vertex="1" parent="1">
          <mxGeometry x="2150" y="170" width="108" height="30" as="geometry" />
        </mxCell>
        <mxCell id="7JDwlH0h02J3nJGDVh9B-119" value="" style="fontColor=#0066CC;verticalAlign=top;verticalLabelPosition=bottom;labelPosition=center;align=center;html=1;outlineConnect=0;fillColor=#CCCCCC;strokeColor=#6881B3;gradientColor=none;gradientDirection=north;strokeWidth=2;shape=mxgraph.networks.router;fontSize=18;" vertex="1" parent="1">
          <mxGeometry x="2150" y="100" width="118" height="40" as="geometry" />
        </mxCell>
        <mxCell id="7JDwlH0h02J3nJGDVh9B-120" value="" style="endArrow=none;html=1;rounded=0;fontSize=33;strokeWidth=3;" edge="1" parent="1">
          <mxGeometry width="50" height="50" relative="1" as="geometry">
            <mxPoint x="2135" y="305" as="sourcePoint" />
            <mxPoint x="2265" y="305" as="targetPoint" />
          </mxGeometry>
        </mxCell>
        <mxCell id="7JDwlH0h02J3nJGDVh9B-121" value="" style="endArrow=none;dashed=1;html=1;rounded=0;fontSize=33;strokeWidth=3;" edge="1" parent="1">
          <mxGeometry width="50" height="50" relative="1" as="geometry">
            <mxPoint x="2144.5" y="371.5" as="sourcePoint" />
            <mxPoint x="2263.5" y="372" as="targetPoint" />
          </mxGeometry>
        </mxCell>
        <mxCell id="ds0_vy_Eozye5HKEika6-7" style="edgeStyle=orthogonalEdgeStyle;rounded=0;orthogonalLoop=1;jettySize=auto;html=1;exitX=1;exitY=0.5;exitDx=0;exitDy=0;exitPerimeter=0;fontSize=33;endArrow=none;endFill=0;strokeWidth=3;" edge="1" parent="1" source="ds0_vy_Eozye5HKEika6-1" target="7JDwlH0h02J3nJGDVh9B-10">
          <mxGeometry relative="1" as="geometry">
            <Array as="points">
              <mxPoint x="1000" y="615" />
              <mxPoint x="1000" y="215" />
            </Array>
          </mxGeometry>
        </mxCell>
        <mxCell id="ds0_vy_Eozye5HKEika6-48" value="Trunk&lt;br&gt;Port 4" style="edgeLabel;html=1;align=center;verticalAlign=middle;resizable=0;points=[];fontSize=33;" vertex="1" connectable="0" parent="ds0_vy_Eozye5HKEika6-7">
          <mxGeometry x="0.1007" y="1" relative="1" as="geometry">
            <mxPoint y="-1" as="offset" />
          </mxGeometry>
        </mxCell>
        <mxCell id="ds0_vy_Eozye5HKEika6-8" style="edgeStyle=orthogonalEdgeStyle;rounded=0;orthogonalLoop=1;jettySize=auto;html=1;entryX=1;entryY=0.5;entryDx=0;entryDy=0;entryPerimeter=0;fontSize=33;endArrow=none;endFill=0;strokeWidth=10;" edge="1" parent="1" source="ds0_vy_Eozye5HKEika6-1" target="7JDwlH0h02J3nJGDVh9B-2">
          <mxGeometry relative="1" as="geometry">
            <Array as="points">
              <mxPoint x="944" y="120" />
            </Array>
          </mxGeometry>
        </mxCell>
        <mxCell id="ds0_vy_Eozye5HKEika6-19" value="Trunk&lt;br&gt;Port 8" style="edgeStyle=orthogonalEdgeStyle;rounded=0;orthogonalLoop=1;jettySize=auto;html=1;exitX=0.9;exitY=1;exitDx=0;exitDy=0;exitPerimeter=0;fontSize=33;endArrow=none;endFill=0;strokeWidth=3;" edge="1" parent="1" source="ds0_vy_Eozye5HKEika6-1" target="ds0_vy_Eozye5HKEika6-18">
          <mxGeometry relative="1" as="geometry" />
        </mxCell>
        <mxCell id="ds0_vy_Eozye5HKEika6-46" style="edgeStyle=orthogonalEdgeStyle;rounded=0;orthogonalLoop=1;jettySize=auto;html=1;exitX=0.05;exitY=0.05;exitDx=0;exitDy=0;exitPerimeter=0;entryX=1;entryY=0.5;entryDx=0;entryDy=0;entryPerimeter=0;fontSize=33;endArrow=none;endFill=0;strokeWidth=3;" edge="1" parent="1" source="ds0_vy_Eozye5HKEika6-1" target="ds0_vy_Eozye5HKEika6-45">
          <mxGeometry relative="1" as="geometry">
            <Array as="points">
              <mxPoint x="890" y="593" />
              <mxPoint x="890" y="280" />
              <mxPoint x="800" y="280" />
            </Array>
          </mxGeometry>
        </mxCell>
        <mxCell id="ds0_vy_Eozye5HKEika6-50" value="Port 3" style="edgeLabel;html=1;align=center;verticalAlign=middle;resizable=0;points=[];fontSize=33;" vertex="1" connectable="0" parent="ds0_vy_Eozye5HKEika6-46">
          <mxGeometry x="0.2467" y="2" relative="1" as="geometry">
            <mxPoint as="offset" />
          </mxGeometry>
        </mxCell>
        <mxCell id="ds0_vy_Eozye5HKEika6-1" value="Core Switch (MDF)&lt;br&gt;192.168.1.1" style="fontColor=#0066CC;verticalAlign=top;verticalLabelPosition=bottom;labelPosition=center;align=center;html=1;outlineConnect=0;fillColor=#CCCCCC;strokeColor=#6881B3;gradientColor=none;gradientDirection=north;strokeWidth=2;shape=mxgraph.networks.switch;fontSize=18;" vertex="1" parent="1">
          <mxGeometry x="856" y="590" width="212" height="50" as="geometry" />
        </mxCell>
        <mxCell id="ds0_vy_Eozye5HKEika6-28" style="edgeStyle=orthogonalEdgeStyle;rounded=0;orthogonalLoop=1;jettySize=auto;html=1;exitX=1;exitY=0.7;exitDx=0;exitDy=0;exitPerimeter=0;entryX=0.15;entryY=0.5;entryDx=0;entryDy=0;entryPerimeter=0;fontSize=33;endArrow=none;endFill=0;strokeWidth=3;dashed=1;" edge="1" parent="1" source="ds0_vy_Eozye5HKEika6-12" target="ds0_vy_Eozye5HKEika6-25">
          <mxGeometry relative="1" as="geometry" />
        </mxCell>
        <mxCell id="ds0_vy_Eozye5HKEika6-29" style="edgeStyle=orthogonalEdgeStyle;rounded=0;orthogonalLoop=1;jettySize=auto;html=1;exitX=0.98;exitY=0.94;exitDx=0;exitDy=0;exitPerimeter=0;entryX=0.15;entryY=0.5;entryDx=0;entryDy=0;entryPerimeter=0;dashed=1;fontSize=33;endArrow=none;endFill=0;strokeWidth=3;" edge="1" parent="1" source="ds0_vy_Eozye5HKEika6-12" target="ds0_vy_Eozye5HKEika6-26">
          <mxGeometry relative="1" as="geometry">
            <Array as="points">
              <mxPoint x="2020" y="1222" />
              <mxPoint x="2020" y="1400" />
            </Array>
          </mxGeometry>
        </mxCell>
        <mxCell id="ds0_vy_Eozye5HKEika6-30" style="edgeStyle=orthogonalEdgeStyle;rounded=0;orthogonalLoop=1;jettySize=auto;html=1;exitX=0.98;exitY=0.94;exitDx=0;exitDy=0;exitPerimeter=0;entryX=0.15;entryY=0.5;entryDx=0;entryDy=0;entryPerimeter=0;dashed=1;fontSize=33;endArrow=none;endFill=0;strokeWidth=3;" edge="1" parent="1" source="ds0_vy_Eozye5HKEika6-12" target="ds0_vy_Eozye5HKEika6-27">
          <mxGeometry relative="1" as="geometry">
            <Array as="points">
              <mxPoint x="1990" y="1222" />
              <mxPoint x="1990" y="1493" />
            </Array>
          </mxGeometry>
        </mxCell>
        <mxCell id="ds0_vy_Eozye5HKEika6-32" style="edgeStyle=orthogonalEdgeStyle;rounded=0;orthogonalLoop=1;jettySize=auto;html=1;exitX=0.5;exitY=1;exitDx=0;exitDy=0;exitPerimeter=0;dashed=1;fontSize=33;endArrow=none;endFill=0;strokeWidth=3;" edge="1" parent="1" source="ds0_vy_Eozye5HKEika6-12" target="ds0_vy_Eozye5HKEika6-31">
          <mxGeometry relative="1" as="geometry" />
        </mxCell>
        <mxCell id="ds0_vy_Eozye5HKEika6-36" style="edgeStyle=orthogonalEdgeStyle;rounded=0;orthogonalLoop=1;jettySize=auto;html=1;exitX=0;exitY=0.7;exitDx=0;exitDy=0;exitPerimeter=0;fontSize=33;endArrow=none;endFill=0;strokeWidth=3;dashed=1;" edge="1" parent="1" source="ds0_vy_Eozye5HKEika6-12" target="ds0_vy_Eozye5HKEika6-22">
          <mxGeometry relative="1" as="geometry" />
        </mxCell>
        <mxCell id="ds0_vy_Eozye5HKEika6-37" style="edgeStyle=orthogonalEdgeStyle;rounded=0;orthogonalLoop=1;jettySize=auto;html=1;exitX=0.02;exitY=0.94;exitDx=0;exitDy=0;exitPerimeter=0;entryX=0.83;entryY=0;entryDx=0;entryDy=0;entryPerimeter=0;dashed=1;fontSize=33;endArrow=none;endFill=0;strokeWidth=3;" edge="1" parent="1" source="ds0_vy_Eozye5HKEika6-12" target="ds0_vy_Eozye5HKEika6-23">
          <mxGeometry relative="1" as="geometry">
            <Array as="points">
              <mxPoint x="1800" y="1222" />
              <mxPoint x="1800" y="1368" />
            </Array>
          </mxGeometry>
        </mxCell>
        <mxCell id="ds0_vy_Eozye5HKEika6-38" style="edgeStyle=orthogonalEdgeStyle;rounded=0;orthogonalLoop=1;jettySize=auto;html=1;exitX=0.02;exitY=0.94;exitDx=0;exitDy=0;exitPerimeter=0;entryX=0.83;entryY=0;entryDx=0;entryDy=0;entryPerimeter=0;dashed=1;fontSize=33;endArrow=none;endFill=0;strokeWidth=3;" edge="1" parent="1" source="ds0_vy_Eozye5HKEika6-12" target="ds0_vy_Eozye5HKEika6-24">
          <mxGeometry relative="1" as="geometry">
            <Array as="points">
              <mxPoint x="1840" y="1222" />
              <mxPoint x="1840" y="1460" />
            </Array>
          </mxGeometry>
        </mxCell>
        <mxCell id="ds0_vy_Eozye5HKEika6-12" value="&lt;span style=&quot;font-size: 16px&quot;&gt;192.168.5.2&lt;/span&gt;" style="fontColor=#0066CC;verticalAlign=top;verticalLabelPosition=bottom;labelPosition=center;align=center;html=1;outlineConnect=0;fillColor=#CCCCCC;strokeColor=#6881B3;gradientColor=none;gradientDirection=north;strokeWidth=2;shape=mxgraph.networks.wireless_hub;fontSize=33;" vertex="1" parent="1">
          <mxGeometry x="1870" y="1142.5" width="100" height="85" as="geometry" />
        </mxCell>
        <mxCell id="ds0_vy_Eozye5HKEika6-17" value="" style="fontColor=#0066CC;verticalAlign=top;verticalLabelPosition=bottom;labelPosition=center;align=center;html=1;outlineConnect=0;fillColor=#CCCCCC;strokeColor=#6881B3;gradientColor=none;gradientDirection=north;strokeWidth=2;shape=mxgraph.networks.satellite_dish;fontSize=33;" vertex="1" parent="1">
          <mxGeometry x="2160" y="820" width="90" height="100" as="geometry" />
        </mxCell>
        <mxCell id="ds0_vy_Eozye5HKEika6-20" value="P2P" style="edgeStyle=orthogonalEdgeStyle;rounded=0;orthogonalLoop=1;jettySize=auto;html=1;exitX=0.83;exitY=0.8;exitDx=0;exitDy=0;exitPerimeter=0;fontSize=33;endArrow=none;endFill=0;strokeWidth=3;dashed=1;" edge="1" parent="1" source="ds0_vy_Eozye5HKEika6-18" target="ds0_vy_Eozye5HKEika6-17">
          <mxGeometry relative="1" as="geometry" />
        </mxCell>
        <mxCell id="ds0_vy_Eozye5HKEika6-18" value="" style="fontColor=#0066CC;verticalAlign=top;verticalLabelPosition=bottom;labelPosition=center;align=center;html=1;outlineConnect=0;fillColor=#CCCCCC;strokeColor=#6881B3;gradientColor=none;gradientDirection=north;strokeWidth=2;shape=mxgraph.networks.satellite_dish;fontSize=33;" vertex="1" parent="1">
          <mxGeometry x="1240" y="795" width="90" height="100" as="geometry" />
        </mxCell>
        <mxCell id="ds0_vy_Eozye5HKEika6-22" value="&lt;span style=&quot;font-size: 16px&quot;&gt;192.168.5.4&lt;/span&gt;" style="fontColor=#0066CC;verticalAlign=top;verticalLabelPosition=bottom;labelPosition=center;align=center;html=1;outlineConnect=0;fillColor=#CCCCCC;strokeColor=#6881B3;gradientColor=none;gradientDirection=north;strokeWidth=2;shape=mxgraph.networks.laptop;fontSize=33;" vertex="1" parent="1">
          <mxGeometry x="1680" y="1275" width="100" height="55" as="geometry" />
        </mxCell>
        <mxCell id="ds0_vy_Eozye5HKEika6-23" value="&lt;span style=&quot;font-size: 16px&quot;&gt;192.168.5.5&lt;/span&gt;" style="fontColor=#0066CC;verticalAlign=top;verticalLabelPosition=bottom;labelPosition=center;align=center;html=1;outlineConnect=0;fillColor=#CCCCCC;strokeColor=#6881B3;gradientColor=none;gradientDirection=north;strokeWidth=2;shape=mxgraph.networks.laptop;fontSize=33;" vertex="1" parent="1">
          <mxGeometry x="1670" y="1385" width="100" height="55" as="geometry" />
        </mxCell>
        <mxCell id="ds0_vy_Eozye5HKEika6-24" value="&lt;span style=&quot;font-size: 16px&quot;&gt;192.168.5.6&lt;/span&gt;" style="fontColor=#0066CC;verticalAlign=top;verticalLabelPosition=bottom;labelPosition=center;align=center;html=1;outlineConnect=0;fillColor=#CCCCCC;strokeColor=#6881B3;gradientColor=none;gradientDirection=north;strokeWidth=2;shape=mxgraph.networks.laptop;fontSize=33;" vertex="1" parent="1">
          <mxGeometry x="1680" y="1497.5" width="100" height="55" as="geometry" />
        </mxCell>
        <mxCell id="ds0_vy_Eozye5HKEika6-25" value="&lt;span style=&quot;font-size: 16px&quot;&gt;192.168.5.7&lt;/span&gt;" style="fontColor=#0066CC;verticalAlign=top;verticalLabelPosition=bottom;labelPosition=center;align=center;html=1;outlineConnect=0;fillColor=#CCCCCC;strokeColor=#6881B3;gradientColor=none;gradientDirection=north;strokeWidth=2;shape=mxgraph.networks.laptop;fontSize=33;" vertex="1" parent="1">
          <mxGeometry x="2030" y="1275" width="100" height="55" as="geometry" />
        </mxCell>
        <mxCell id="ds0_vy_Eozye5HKEika6-26" value="&lt;span style=&quot;font-size: 16px&quot;&gt;192.168.5.8&lt;/span&gt;" style="fontColor=#0066CC;verticalAlign=top;verticalLabelPosition=bottom;labelPosition=center;align=center;html=1;outlineConnect=0;fillColor=#CCCCCC;strokeColor=#6881B3;gradientColor=none;gradientDirection=north;strokeWidth=2;shape=mxgraph.networks.laptop;fontSize=33;" vertex="1" parent="1">
          <mxGeometry x="2030" y="1387.5" width="100" height="55" as="geometry" />
        </mxCell>
        <mxCell id="ds0_vy_Eozye5HKEika6-27" value="&lt;span style=&quot;font-size: 16px&quot;&gt;192.168.5.9&lt;/span&gt;" style="fontColor=#0066CC;verticalAlign=top;verticalLabelPosition=bottom;labelPosition=center;align=center;html=1;outlineConnect=0;fillColor=#CCCCCC;strokeColor=#6881B3;gradientColor=none;gradientDirection=north;strokeWidth=2;shape=mxgraph.networks.laptop;fontSize=33;" vertex="1" parent="1">
          <mxGeometry x="2030" y="1492.5" width="100" height="55" as="geometry" />
        </mxCell>
        <mxCell id="ds0_vy_Eozye5HKEika6-31" value="&lt;span style=&quot;font-size: 16px&quot;&gt;192.168.5.10&lt;/span&gt;" style="fontColor=#0066CC;verticalAlign=top;verticalLabelPosition=bottom;labelPosition=center;align=center;html=1;outlineConnect=0;fillColor=#CCCCCC;strokeColor=#6881B3;gradientColor=none;gradientDirection=north;strokeWidth=2;shape=mxgraph.networks.printer;fontSize=33;" vertex="1" parent="1">
          <mxGeometry x="1870" y="1397.5" width="100" height="100" as="geometry" />
        </mxCell>
        <mxCell id="ds0_vy_Eozye5HKEika6-45" value="DB Server&lt;br&gt;192.168.1.3" style="fontColor=#0066CC;verticalAlign=top;verticalLabelPosition=bottom;labelPosition=center;align=center;html=1;outlineConnect=0;fillColor=#CCCCCC;strokeColor=#6881B3;gradientColor=none;gradientDirection=north;strokeWidth=2;shape=mxgraph.networks.server;fontSize=33;" vertex="1" parent="1">
          <mxGeometry x="710" y="205" width="90" height="100" as="geometry" />
        </mxCell>
        <mxCell id="ds0_vy_Eozye5HKEika6-51" value="Exec. Building 5" style="text;html=1;strokeColor=none;fillColor=none;align=center;verticalAlign=middle;whiteSpace=wrap;rounded=0;fontSize=33;" vertex="1" parent="1">
          <mxGeometry x="1805.5" y="940" width="321" height="30" as="geometry" />
        </mxCell>
        <mxCell id="ds0_vy_Eozye5HKEika6-53" value="Finance Building 4" style="text;html=1;strokeColor=none;fillColor=none;align=center;verticalAlign=middle;whiteSpace=wrap;rounded=0;fontSize=33;" vertex="1" parent="1">
          <mxGeometry x="990" y="940" width="350" height="30" as="geometry" />
        </mxCell>
        <mxCell id="ds0_vy_Eozye5HKEika6-54" value="Admin. Building 1" style="text;html=1;strokeColor=none;fillColor=none;align=center;verticalAlign=middle;whiteSpace=wrap;rounded=0;fontSize=33;" vertex="1" parent="1">
          <mxGeometry x="900" y="110" width="530" height="30" as="geometry" />
        </mxCell>
        <mxCell id="ds0_vy_Eozye5HKEika6-55" value="Marketing Building 2" style="text;html=1;strokeColor=none;fillColor=none;align=center;verticalAlign=middle;whiteSpace=wrap;rounded=0;fontSize=33;" vertex="1" parent="1">
          <mxGeometry x="200" y="305" width="460" height="30" as="geometry" />
        </mxCell>
        <mxCell id="ds0_vy_Eozye5HKEika6-56" value="IT Building 3" style="text;html=1;strokeColor=none;fillColor=none;align=center;verticalAlign=middle;whiteSpace=wrap;rounded=0;fontSize=33;" vertex="1" parent="1">
          <mxGeometry x="310" y="940" width="378" height="30" as="geometry" />
        </mxCell>
      </root>
    </mxGraphModel>
  </diagram>
  <diagram id="8iqhbNnsG8wU9yBag92k" name="Page-2">
    <mxGraphModel dx="1038" dy="547" grid="1" gridSize="10" guides="1" tooltips="1" connect="1" arrows="1" fold="1" page="1" pageScale="1" pageWidth="2336" pageHeight="1654" math="0" shadow="0">
      <root>
        <mxCell id="0" />
        <mxCell id="1" parent="0" />
      </root>
    </mxGraphModel>
  </diagram>
</mxfile>
